<?xml version="1.0" encoding="UTF-8"?>
<svg version="1.1" xmlns="http://www.w3.org/2000/svg" width="19" height="19">
<path d="M0 0 C6.27 0 12.54 0 19 0 C19 6.27 19 12.54 19 19 C12.73 19 6.46 19 0 19 C0 12.73 0 6.46 0 0 Z " fill="#32A651" transform="translate(0,0)"/>
<path d="M0 0 C3.3 0 6.6 0 10 0 C9.67 1.98 9.34 3.96 9 6 C11.64 6 14.28 6 17 6 C17 6.99 17 7.98 17 9 C14.36 9 11.72 9 9 9 C9 11.64 9 14.28 9 17 C7.68 17 6.36 17 5 17 C5 14.36 5 11.72 5 9 C3.68 9 2.36 9 1 9 C0.67 6.03 0.34 3.06 0 0 Z " fill="#58B772" transform="translate(0,0)"/>
<path d="M0 0 C0.66 0 1.32 0 2 0 C2 1.32 2 2.64 2 4 C4.64 4 7.28 4 10 4 C10 4.66 10 5.32 10 6 C7.36 6 4.72 6 2 6 C2 8.64 2 11.28 2 14 C1.34 14 0.68 14 0 14 C0 11.36 0 8.72 0 6 C-1.32 6 -2.64 6 -4 6 C-4 5.34 -4 4.68 -4 4 C-2.68 4 -1.36 4 0 4 C0 2.68 0 1.36 0 0 Z " fill="#FEFEFE" transform="translate(6,2)"/>
</svg>
